<?xml version="1.0" encoding="UTF-8"?>
<!DOCTYPE svg PUBLIC "-//W3C//DTD SVG 1.0//EN" "http://www.w3.org/TR/2001/REC-SVG-20010904/DTD/svg10.dtd">
<!-- Creator: CorelDRAW 2020 (64 Bit) -->
<svg xmlns="http://www.w3.org/2000/svg" xml:space="preserve" width="18.0823mm" height="20.4013mm" version="1.0" shape-rendering="geometricPrecision" text-rendering="geometricPrecision" image-rendering="optimizeQuality" fill-rule="evenodd" clip-rule="evenodd"
viewBox="0 0 196.58 221.8"
 xmlns:xlink="http://www.w3.org/1999/xlink"
 xmlns:xodm="http://www.corel.com/coreldraw/odm/2003">
 <g id="Corpo_x0020_2">
  <metadata id="CorelCorpID_0Corel-Layer"/>
  <path fill="#DE9666" d="M93.28 70.64l43.23 37.2 -17.52 64.07 -60.74 26.87 -52.05 23.02 58.13 -67.54c8.97,5.2 20.65,3.45 27.66,-4.7 7.92,-9.2 6.88,-23.08 -2.32,-31 -9.2,-7.92 -23.08,-6.88 -30.99,2.32 -7.01,8.14 -7,19.95 -0.52,28.05l-58.13 67.54 15.01 -54.9 17.52 -64.07 60.74 -26.87 0 0zm-31.04 82.26c-0.12,-0.09 -0.24,-0.18 -0.36,-0.27 0.12,0.09 0.24,0.18 0.36,0.27zm-0.41 -0.31c-0.14,-0.11 -0.27,-0.21 -0.41,-0.32 0.13,0.11 0.27,0.22 0.41,0.32zm-0.46 -0.36c-0.13,-0.11 -0.27,-0.22 -0.4,-0.34 -0.13,-0.11 -0.26,-0.23 -0.39,-0.34 0.13,0.12 0.26,0.23 0.39,0.34 0.13,0.11 0.27,0.23 0.4,0.34zm-0.84 -0.72c-0.13,-0.12 -0.26,-0.23 -0.38,-0.35 0.13,0.12 0.25,0.24 0.38,0.35z"/>
  <rect fill="#DE9666" transform="matrix(0.466425 0.401432 -0.401432 0.466425 118.887 40.8784)" width="92.41" height="52.93"/>
  <path fill="#669999" d="M122.38 36.82l43.1 37.1 31.1 -36.14c-11.77,-14.81 -26.11,-27.65 -42.51,-37.78l-31.69 36.82z"/>
 </g>
</svg>
