<?xml version="1.0" encoding="UTF-8"?>
<!DOCTYPE svg PUBLIC "-//W3C//DTD SVG 1.0//EN" "http://www.w3.org/TR/2001/REC-SVG-20010904/DTD/svg10.dtd">
<!-- Creator: CorelDRAW 2020 (64 Bit) -->
<svg xmlns="http://www.w3.org/2000/svg" xml:space="preserve" width="18.1431mm" height="18.6142mm" version="1.0" shape-rendering="geometricPrecision" text-rendering="geometricPrecision" image-rendering="optimizeQuality" fill-rule="evenodd" clip-rule="evenodd"
viewBox="0 0 146.3 150.1"
 xmlns:xlink="http://www.w3.org/1999/xlink"
 xmlns:xodm="http://www.corel.com/coreldraw/odm/2003">
 <g id="Corpo_x0020_2">
  <metadata id="CorelCorpID_0Corel-Layer"/>
  <circle fill="#A9DEDE" cx="139.73" cy="83.42" r="6.57"/>
  <circle fill="#669999" cx="13.74" cy="45.61" r="13.74"/>
  <rect fill="#4D4D4D" transform="matrix(0.81674 0.202209 -0.202209 0.81674 58.8294 -3.03145)" width="90.55" height="168.78" rx="17.07" ry="17.07"/>
  <rect fill="#DE9666" transform="matrix(0.638774 0.158148 -0.158148 0.638774 64.7989 7.39628)" width="90.55" height="168.78" rx="17.07" ry="17.07"/>
  <circle fill="#DE9666" transform="matrix(0.017635 0.0043661 -0.0043661 0.017635 64.5963 133.089)" r="358.44"/>
  <path fill="white" d="M77.83 61.73c-0.22,0.53 -0.21,0.65 -0.07,1.22 0.22,0.87 0.71,2.42 1.11,3.16 0.08,0.16 0.12,0.28 0.19,0.45l0.45 0.87c0.78,1.46 1.28,2.31 3.28,1.19 1.9,-1.07 1.81,-0.28 2.67,1.86 0.12,0.3 0.78,1.74 0.69,1.97 -0.23,0.55 -0.32,0.46 -0.94,0.71 -0.33,0.13 -0.61,0.28 -0.96,0.35 -1.62,0.31 -2.64,-0.08 -3.87,-1.15l-1.02 -0.99c-0.64,-0.71 -1.12,-1.42 -1.61,-2.17 -0.12,-0.19 -0.23,-0.36 -0.34,-0.57 -0.77,-1.49 -0.9,-1.6 -1.47,-3.28 -0.5,-1.46 -0.57,-1.95 -0.8,-3.51 -0.07,-0.47 -0.05,-0.89 -0.07,-1.38 -0.12,-2.32 0.69,-3.79 2.76,-4.63 1.76,-0.71 1.39,-0.77 2.88,2.91 0.58,1.44 0.42,1.31 -1.32,2.01 -0.45,0.18 -1.31,0.4 -1.55,0.96zm17.05 8.18l-0.44 1.04c-0.43,0.92 -0.95,1.79 -1.57,2.62 -0.97,1.29 -1.77,1.97 -2.92,2.91 -0.92,0.75 -1.89,1.15 -2.77,1.65 -0.62,0.35 -2.34,0.85 -3.03,1 -0.21,0.05 -0.42,0.09 -0.66,0.12 -3.23,0.44 -5.26,0.27 -8.68,-1.18 -3.69,-1.56 -6.93,-5.45 -7.92,-9.09 -0.23,-0.84 -0.46,-1.65 -0.54,-2.51 -0.04,-0.44 -0.09,-0.85 -0.11,-1.32 -0.08,-2.43 0.32,-4.23 1.38,-6.73 0.79,-1.87 2.38,-3.79 3.52,-4.78 1.55,-1.34 3.59,-2.6 5.56,-3.13 0.24,-0.06 0.38,-0.12 0.63,-0.18 0.22,-0.05 0.4,-0.1 0.6,-0.15 0.21,-0.05 0.42,-0.09 0.66,-0.12 0.7,-0.09 1.18,-0.18 1.94,-0.2 2.43,-0.08 4.23,0.32 6.73,1.38 3.69,1.56 6.93,5.45 7.92,9.09 0.06,0.24 0.12,0.38 0.18,0.63l0.27 1.26c0.13,1 0.23,1.59 0.2,2.65 -0.03,1.74 -0.36,3.44 -0.97,5.05z"/>
 </g>
</svg>
