<?xml version="1.0" encoding="UTF-8"?>
<!DOCTYPE svg PUBLIC "-//W3C//DTD SVG 1.0//EN" "http://www.w3.org/TR/2001/REC-SVG-20010904/DTD/svg10.dtd">
<!-- Creator: CorelDRAW 2020 (64 Bit) -->
<svg xmlns="http://www.w3.org/2000/svg" xml:space="preserve" width="51.3689mm" height="52.7024mm" version="1.0" shape-rendering="geometricPrecision" text-rendering="geometricPrecision" image-rendering="optimizeQuality" fill-rule="evenodd" clip-rule="evenodd"
viewBox="0 0 5010.95 5141.03"
 xmlns:xlink="http://www.w3.org/1999/xlink"
 xmlns:xodm="http://www.corel.com/coreldraw/odm/2003">
 <g id="Corpo_x0020_2">
  <metadata id="CorelCorpID_0Corel-Layer"/>
  <circle fill="#A9DEDE" cx="4785.88" cy="2857.26" r="225.06"/>
  <circle fill="#669999" cx="470.66" cy="1562.09" r="470.66"/>
  <rect fill="#4D4D4D" transform="matrix(2.31245 0.572518 -0.572518 2.31245 2014.95 -103.832)" width="1095.38" height="2041.8" rx="206.48" ry="206.48"/>
  <rect fill="#DE9666" transform="matrix(1.80857 0.447768 -0.447768 1.80857 2219.41 253.324)" width="1095.38" height="2041.8" rx="206.48" ry="206.48"/>
  <circle fill="#DE9666" transform="matrix(0.0499303 0.0123618 -0.0123618 0.0499303 2212.47 4558.39)" r="4336.02"/>
  <g id="_2020976002320">
   <path fill="#E6E6E6" fill-opacity="0.501961" d="M2719.33 1629.06l374.79 92.79c126.8,31.4 204.86,160.83 173.47,287.63l-92.8 374.79c-31.39,126.81 -160.82,204.87 -287.63,173.47l-374.79 -92.79c-126.8,-31.4 -204.86,-160.83 -173.46,-287.63l92.79 -374.79c31.39,-126.81 160.82,-204.87 287.63,-173.47z"/>
   <g>
    <path fill="white" d="M2701.73 1531.6l453.45 112.27c153.41,37.99 247.85,194.58 209.88,348l-112.27 453.45c-37.99,153.41 -194.58,247.85 -348,209.88l-453.44 -112.27c-153.42,-37.99 -247.86,-194.58 -209.88,-348l112.27 -453.44c37.98,-153.42 194.58,-247.86 347.99,-209.88zm17.61 97.46l374.8 92.8c126.8,31.39 204.86,160.83 173.46,287.62l-92.79 374.8c-31.39,126.79 -160.83,204.85 -287.63,173.46l-374.79 -92.8c-126.8,-31.39 -204.86,-160.83 -173.47,-287.62l92.8 -374.79c31.39,-126.8 160.83,-204.86 287.62,-173.47z"/>
    <path fill="white" d="M2868.24 1830.91c144.97,35.9 233.38,182.5 197.5,327.47 -35.9,144.97 -182.5,233.38 -327.47,197.5 -144.97,-35.9 -233.38,-182.5 -197.5,-327.47 35.9,-144.97 182.5,-233.38 327.47,-197.5zm-22.78 92c94.16,23.3 151.59,118.54 128.29,212.69 -23.31,94.16 -118.55,151.59 -212.7,128.29 -94.16,-23.31 -151.59,-118.55 -128.28,-212.7 23.3,-94.16 118.54,-151.59 212.69,-128.28z"/>
    <circle fill="white" transform="matrix(0.0561506 0.0139021 -0.0139021 0.0561506 3140.33 1888.19)" r="1207.97"/>
   </g>
  </g>
 </g>
</svg>
