<?xml version="1.0" encoding="UTF-8"?>
<!DOCTYPE svg PUBLIC "-//W3C//DTD SVG 1.0//EN" "http://www.w3.org/TR/2001/REC-SVG-20010904/DTD/svg10.dtd">
<!-- Creator: CorelDRAW 2020 (64 Bit) -->
<svg xmlns="http://www.w3.org/2000/svg" xml:space="preserve" width="121.877mm" height="110.497mm" version="1.0" shape-rendering="geometricPrecision" text-rendering="geometricPrecision" image-rendering="optimizeQuality" fill-rule="evenodd" clip-rule="evenodd"
viewBox="0 0 6006.93 5446.04"
 xmlns:xlink="http://www.w3.org/1999/xlink"
 xmlns:xodm="http://www.corel.com/coreldraw/odm/2003">
 <g id="Corpo_x0020_3">
  <metadata id="CorelCorpID_0Corel-Layer"/>
  <g id="Ilustração_x0020_2">
   <path fill="#99CCCC" d="M237.96 2717.99c0,0 -454.72,482.71 -106.99,1083.91 336.53,581.83 653.98,183.92 1136.11,825.96 16.05,21.37 32.28,43.9 48.7,67.65 509.72,737.26 1271.06,774.91 1928.14,742.91 657.08,-32 974,-773.82 1812.6,-949.03 838.6,-175.22 1082.62,-766.22 886.46,-1528.32 -196.17,-762.1 -571.79,-741.6 -1163.11,-1203.92 -591.32,-462.32 -357.27,-1802.4 -1030.95,-1755.97 -673.68,46.44 -761.13,851.07 -1073.29,1078.7 -673.55,491.17 -1769.26,-102.07 -2062.26,728.89 -155.59,441.26 -75.52,633.96 -375.41,909.23z"/>
   <path fill="#669999" d="M3255.59 590.34c-21.04,1901.3 -2282.61,24.69 -2495.07,1790.01 -12.64,105.02 -878.04,1006.03 -289.27,1460.94 177.5,137.15 482.93,134.52 736.39,394.51 1838.16,1885.51 2290.87,502.81 3161.89,267.91 413.17,-111.43 1091.18,-219.92 1174.95,-525.89 619.69,-2263.63 -964.66,-890.68 -1416.65,-2928.9 -210.53,-949.38 -785.3,-821.68 -872.23,-458.58z"/>
   <path fill="#456E6E" d="M1224.76 2319.26c108.98,-393.44 203.22,-453.53 593.28,-457.43 390.05,-3.9 1247.75,-6.29 1378.06,-309 483.8,-1123.89 605.98,-86.85 982.46,442.9 447.84,630.18 1294.24,293.94 1085.1,1650.61 -96.73,627.41 -1307.92,350.55 -1659.62,990.92 -444.35,809.08 -1470.7,199.41 -1667.75,-7.5 -334.07,-350.78 -566.36,-819.17 -795.84,-882 -1343,-367.67 -125.59,-670.72 84.31,-1428.51z"/>
   <circle fill="white" transform="matrix(0.210843 -0.0639568 0.0639568 0.210843 3183.02 2626.71)" r="5461.31"/>
   <path fill="#E6E6E6" d="M4258.75 2061.23l60.73 139.48c77.72,34.51 125.69,79.65 136.06,134.63 40.73,216.02 -514.41,502.02 -1239.95,638.81 -725.53,136.79 -1346.7,72.56 -1387.43,-143.45 -13.19,-69.97 36.13,-147.28 133.52,-224.49l5.79 -131.52c-370.13,168.46 -590.34,359.36 -559.89,520.83 54.09,286.92 879.16,372.22 1842.84,190.53 963.68,-181.69 1701.04,-561.57 1646.94,-848.49 -28.6,-151.66 -272.59,-246.99 -638.6,-276.33z"/>
   <circle fill="#A9DEDE" cx="5074.28" cy="1378.16" r="190.95"/>
   <circle fill="white" cx="630.1" cy="3142.07" r="95.47"/>
   <circle fill="#999999" cx="972.79" cy="2765.11" r="149.35"/>
   <path fill="#DE9666" d="M2936.73 3501.9l-387.93 105.6c4.22,17.07 -5.94,34.47 -23,39.11 -14.15,3.85 -28.67,-2.28 -36.06,-14.1l-202.11 55.02c13.54,0.81 40.31,1.42 40.31,1.42 0,0 70.49,-1.19 90.44,20.35l0 0 60.98 87.29c10.28,-4.25 20.33,-8.74 29.98,-13.41 59.86,-28.96 98.53,-60.4 128.37,-98.85 29.84,-38.46 62.88,-63.29 83.42,-78.69 20.55,-15.39 57.63,-34.54 103.52,-59.84 45.9,-25.3 112.08,-43.9 112.08,-43.9l-387.93 105.6 387.93 -105.6 -387.93 105.6z"/>
   <path fill="#DE9666" d="M2879.66 3807.86l-387.93 105.6c4.22,17.07 -5.94,34.47 -23,39.11 -14.15,3.85 -28.67,-2.27 -36.06,-14.1l-202.11 55.02c13.54,0.81 40.31,1.42 40.31,1.42 0,0 70.5,-1.19 90.44,20.35l0 0 60.98 87.29c10.28,-4.25 20.33,-8.73 29.98,-13.41 59.86,-28.95 98.53,-60.39 128.37,-98.85 29.84,-38.46 62.88,-63.29 83.42,-78.69 20.55,-15.39 57.63,-34.54 103.52,-59.84 45.9,-25.3 112.08,-43.9 112.08,-43.9l-387.93 105.6 387.93 -105.6 -387.93 105.6z"/>
   <path fill="#DE9666" d="M2839.17 4111.21l-387.93 105.61c4.22,17.06 -5.94,34.47 -23,39.11 -14.16,3.85 -28.67,-2.28 -36.06,-14.1l-202.11 55.02c13.54,0.81 40.31,1.42 40.31,1.42 0,0 70.5,-1.19 90.44,20.35l0 0 60.98 87.29c10.28,-4.25 20.33,-8.73 29.98,-13.41 59.86,-28.96 98.53,-60.39 128.37,-98.85 29.84,-38.46 62.88,-63.3 83.42,-78.69 20.55,-15.39 57.63,-34.54 103.52,-59.84 45.9,-25.3 112.08,-43.9 112.08,-43.9l-387.93 105.61 387.93 -105.61 -387.93 105.61z"/>
   <path fill="#999999" d="M780.4 4236.28l1456.12 -539.3c0,0 -686.47,353.81 -925.31,991.93 -14.86,-21.33 -29.56,-41.67 -44.12,-61.04 -182.51,-243.05 -341.41,-337.03 -486.69,-391.59z"/>
   <path fill="#CCCCCC" d="M1083.12 4422.33l1110.75 -411.38c0,0 -526.27,271.32 -817.56,767.18 -20.53,-26.55 -40.74,-54 -60.52,-82.62 -16.42,-23.74 -32.65,-46.27 -48.7,-67.64 -64.1,-85.36 -125.26,-152.19 -183.97,-205.54z"/>
   <path fill="#E6E6E6" d="M1273.62 4636.62l884.41 -327.55c0,0 -394.34,203.22 -689.25,579.41 -53.09,-58.3 -104.19,-122.4 -152.98,-192.97 -14.19,-20.52 -28.26,-40.14 -42.17,-58.88z"/>
   <circle fill="#CCCCCC" cx="3871.87" cy="4754.29" r="95.47"/>
  </g>
 </g>
</svg>
