<?xml version="1.0" encoding="UTF-8"?>
<!DOCTYPE svg PUBLIC "-//W3C//DTD SVG 1.0//EN" "http://www.w3.org/TR/2001/REC-SVG-20010904/DTD/svg10.dtd">
<!-- Creator: CorelDRAW 2020 (64 Bit) -->
<svg xmlns="http://www.w3.org/2000/svg" xml:space="preserve" width="145.984mm" height="118.061mm" version="1.0" shape-rendering="geometricPrecision" text-rendering="geometricPrecision" image-rendering="optimizeQuality" fill-rule="evenodd" clip-rule="evenodd"
viewBox="0 0 62740.93 50740.42"
 xmlns:xlink="http://www.w3.org/1999/xlink"
 xmlns:xodm="http://www.corel.com/coreldraw/odm/2003">
 <g id="Corpo_x0020_5">
  <metadata id="CorelCorpID_0Corel-Layer"/>
  <g id="Ilustração_x0020_3">
   <path fill="#99CCCC" d="M308.63 27873.86c-2645.17,-17760.17 12558.58,-14395.55 13463.61,-14555.25 11674.48,-2060.2 8131.19,-14067.88 21105.07,-13281.64 6004.04,363.85 7823.47,8915.03 10734.5,9642.82 2911.03,727.79 15283,-727.7 16920.46,13827.51 2314.54,20573.73 -15282.74,13968.47 -20377.32,22742.53 -3274.93,5640.18 -13099.71,5640.18 -16738.54,1819.43 -10979.52,-11528.44 -16682.37,3957.55 -25107.79,-20195.39z"/>
   <path fill="#669999" d="M5675.77 20869.07c2006.22,-6327.4 12331.4,-3924.59 15646.9,-8005.35 1969.43,-2423.96 5657.63,-12580.97 12553.89,-10916.43 5480.99,1322.91 8569.27,11870.03 12462.91,10734.46 16308.8,-4756.51 15648.4,23548.24 8824.13,23743.23 -19283.7,551.06 -9442.37,6968.25 -17011.45,10279.67 -9926.73,4342.93 -15721.29,-7112.27 -21105.11,-5549.2 -12404.42,3601.22 -11996.08,-15537.69 -11371.27,-20286.38z"/>
   <path fill="#456E6E" d="M11189.38 20537.37c-6358.09,17881.84 11887.43,16461.5 15063.38,19759.64 2303.8,2392.46 3632.98,4607.68 7265.91,4341.86 7161.99,-524.03 7329.69,-9461.71 10278.55,-9658.33 3221.34,-214.8 13255.55,1814.41 11873.55,-6822.85 -354.48,-2215.18 620.22,-9835.53 -4076,-12139.33 -7278.29,-3570.49 -5887.69,2621.75 -14443.17,-6468.41 -10315.85,-10960.57 -7064.09,-572.42 -12316.57,3544.32 -5332.98,4179.83 -8513.78,2665.11 -13645.67,7443.11z"/>
   <g>
    <circle fill="white" transform="matrix(4.83137 1.47923 -1.47923 4.83137 41456.3 18942.8)" r="2228.76"/>
    <circle fill="#4D4D4D" transform="matrix(4.07333 1.24714 -1.24714 4.07333 41456.3 18942.8)" r="2228.76"/>
    <path fill="white" d="M51571.06 17728.5l-379.63 2949.97c331.7,458.7 459.87,885.78 346.32,1256.55 -495.67,1618.98 -5410.38,1549.83 -10976.9,-154.46 -5566.52,-1704.34 -9677.5,-4398.59 -9181.79,-6017.62 109.77,-358.52 436.27,-634.27 938.56,-827.76l1401.04 -2675.04c-4515.75,-469.36 -7751.4,88.88 -8243.24,1695.27 -786.03,2567.29 5732.76,6839.49 14559.72,9542.08 8827.01,2702.59 16620.18,2812.31 17406.25,245.06 491.37,-1604.97 -1872.3,-3876.41 -5870.33,-6014.05z"/>
    <path fill="white" d="M29804.17 12126.99c0,0 1972.13,-162.84 4290.03,-1707.73 2317.89,-1544.89 -1726.17,3635.69 -1726.17,3635.69l-2563.86 -1927.95z"/>
    <path fill="white" d="M54704.98 19673.34c0,0 -1487.47,-1297.68 -2434.79,-3909.8 -947.37,-2612.12 -764.97,3941.09 -764.97,3941.09l3199.76 -31.29z"/>
   </g>
   <circle fill="#DE9666" cx="10304.1" cy="26724.2" r="4033.85"/>
   <g>
    <circle fill="white" transform="matrix(0.100748 0.0615974 -0.0615974 0.100748 32069.7 37933)" r="2228.76"/>
    <rect fill="white" transform="matrix(0.436328 0.266772 -0.336305 0.550056 30888.2 37769.5)" width="4275.59" height="4275.59" rx="636.76" ry="636.76"/>
    <rect fill="white" transform="matrix(0.596564 0.364741 -0.15138 0.247595 32446.1 39816.6)" width="4275.59" height="4275.59" rx="636.76" ry="636.76"/>
    <rect fill="white" transform="matrix(0.596564 0.364741 -0.15138 0.247595 27675.7 36891.4)" width="4275.59" height="4275.59" rx="636.76" ry="636.76"/>
   </g>
   <circle fill="#999999" cx="43167.24" cy="35610.53" r="1189.39"/>
   <circle fill="#A9DEDE" cx="15715.84" cy="6608.31" r="3547.49"/>
   <path fill="none" stroke="#CCCCCC" stroke-width="454.84" stroke-miterlimit="22.9256" stroke-dasharray="909.673765 1364.510648" d="M29667.29 37390.02c-8991.27,-9869.44 -11242.89,-22034.04 -5477.98,-29594.83 2992.35,-3924.54 7871.73,-6209.81 13773.1,-6450.62"/>
   <path fill="none" stroke="#CCCCCC" stroke-width="454.84" stroke-miterlimit="22.9256" stroke-dasharray="909.673765 1364.510648" d="M42025.89 46707.57c-2367.02,-1171.93 -4651.39,-2592.91 -6790.96,-4224.27 -231.52,-176.51 -461.24,-355.43 -689.02,-536.62"/>
  </g>
 </g>
</svg>
