<?xml version="1.0" encoding="UTF-8"?>
<!DOCTYPE svg PUBLIC "-//W3C//DTD SVG 1.0//EN" "http://www.w3.org/TR/2001/REC-SVG-20010904/DTD/svg10.dtd">
<!-- Creator: CorelDRAW 2020 (64 Bit) -->
<svg xmlns="http://www.w3.org/2000/svg" xml:space="preserve" width="139.785mm" height="96.2995mm" version="1.0" shape-rendering="geometricPrecision" text-rendering="geometricPrecision" image-rendering="optimizeQuality" fill-rule="evenodd" clip-rule="evenodd"
viewBox="0 0 7410.76 5105.35"
 xmlns:xlink="http://www.w3.org/1999/xlink"
 xmlns:xodm="http://www.corel.com/coreldraw/odm/2003">
 <g id="Corpo_x0020_7">
  <metadata id="CorelCorpID_0Corel-Layer"/>
  <g id="Ilustração_x0020_4">
   <path fill="#CCCCCC" d="M20.67 2165.98c-195.29,-2001.68 1046.95,-1219.86 1477.33,-1327.46 428.21,-107.05 578.09,-663.73 1177.59,-813.61 599.49,-149.87 813.61,428.22 1306.05,363.98 492.44,-64.23 1391.69,-620.9 2076.83,278.34 870.79,1142.9 1305.82,2674.12 -107.05,3361.47 -408.73,198.84 -1359,2088.08 -3104.54,342.57 -698.58,-698.57 -2756.13,1102.4 -2612.1,-578.09 64.23,-749.37 -214.1,-1627.2 -214.1,-1627.2z"/>
   <path fill="#999999" d="M491.7 1459.43c-230.05,-552.17 957.35,9.21 1220.41,-385.39 1102.9,-1654.36 979.4,-96.87 2076.83,-449.62 905.06,-290.91 1856.6,-397.03 2248.12,620.9 1.21,3.14 990.5,1645.59 -58.88,2210.64 -449.1,241.82 -1372,1931.12 -2376.58,1156.17 -655,-505.28 -433.73,-1160.39 -2023.3,-524.57 -1778.61,711.46 -694.28,-1018.34 -1086.6,-2628.14z"/>
   <path fill="#4D4D4D" d="M903.86 2513.89c0,-1736.06 -30.72,-421.48 1156.17,-1509.45 841.24,-771.12 915.25,400.07 1573.68,32.12 2335.73,-1305.28 2709.53,1501.03 2344.46,1798.49 -921.43,750.8 -1472.83,2496.76 -2430.11,1220.41 -1362.81,-1817.08 -2840.03,1656.29 -2644.21,-1541.57z"/>
   <polygon fill="white" points="3626.62,4918.93 4809.53,1484.68 "/>
   <path fill="white" fill-rule="nonzero" d="M3551.68 4914.83l1190.39 -3453.29 134.92 46.28 -1194.78 3470.37c-44.02,-19.03 -86.36,-40.55 -130.53,-63.36z"/>
   <ellipse fill="#456E6E" transform="matrix(1.20885 0.337123 -0.337123 1.20885 4579.29 1994.07)" rx="2334.09" ry="695.74"/>
   <ellipse fill="#669999" transform="matrix(0.918928 0.256269 -0.256269 0.918928 4579.29 1994.07)" rx="2334.09" ry="695.74"/>
   <ellipse fill="#99CCCC" transform="matrix(0.707036 0.197177 -0.197177 0.707036 4579.29 1994.07)" rx="2334.09" ry="695.74"/>
   <ellipse fill="#A9DEDE" transform="matrix(0.491285 0.137009 -0.137009 0.491285 4579.29 1994.07)" rx="2334.09" ry="695.74"/>
   <g>
    <path fill="white" d="M4654.6 1937.96l-482.89 -141.32c62.76,-214.45 259.44,-361.83 482.89,-361.83 277.89,0 503.15,225.27 503.15,503.15 0,41.18 -5.05,82.2 -15.05,122.14l-488.1 -122.14z"/>
    <ellipse fill="white" transform="matrix(0.207788 0.0579476 -0.0579476 0.207788 4657.96 1924.73)" rx="2334.09" ry="695.74"/>
   </g>
   <circle fill="#669999" cx="5449.58" cy="3405.89" r="64.23"/>
   <circle fill="#669999" cx="1386.24" cy="1222.4" r="117.76"/>
   <circle fill="#669999" cx="2138.42" cy="2394.68" r="57.76"/>
   <circle fill="#669999" cx="2079.55" cy="778.17" r="57.76"/>
   <circle fill="#669999" cx="1587.11" cy="1912.93" r="199.36"/>
   <circle fill="#669999" cx="6064.11" cy="3404.34" r="199.36"/>
   <polygon fill="white" points="4750.07,1679.8 5244.64,243.93 "/>
   <path fill="white" fill-rule="nonzero" d="M4682.61 1656.65l514.64 -1492.68c44.72,4.41 90.54,8.82 143.33,20.26l-523.04 1518.7 -134.92 -46.28z"/>
   <g>
    <rect fill="#DE9666" transform="matrix(0.189844 -0.449439 0.358083 0.151255 1510.92 3173)" width="527.41" height="527.41" rx="78.55" ry="78.55"/>
    <rect fill="#DE9666" transform="matrix(0.313235 0.132311 0.0177061 -0.0419176 1643.52 3102.37)" width="527.41" height="527.41" rx="263.71" ry="263.71"/>
    <rect fill="#DE9666" transform="matrix(0.259562 -0.614491 0.162579 0.0686738 1416.38 3540.64)" width="527.41" height="527.41" rx="78.55" ry="78.55"/>
    <rect fill="#DE9666" transform="matrix(0.259562 -0.614491 0.162579 0.0686738 1671.79 2935.99)" width="527.41" height="527.41" rx="78.55" ry="78.55"/>
    <ellipse fill="#DE9666" transform="matrix(0.0630767 -0.149329 0.108407 0.0457911 1459.44 3011.59)" rx="2334.09" ry="695.74"/>
    <rect fill="#DE9666" transform="matrix(0.385486 0.16283 0.0177061 -0.0419176 1251 2936.57)" width="527.41" height="527.41" rx="263.71" ry="263.71"/>
   </g>
   <path fill="none" stroke="#CCCCCC" stroke-width="37.41" stroke-miterlimit="22.9256" stroke-dasharray="74.815232 112.222849" d="M5582.01 4283.56c-508.59,-102.86 -1024.91,-227.14 -1537.96,-370.22 -757.7,-211.3 -1498.34,-460.82 -2187.82,-737.05"/>
  </g>
 </g>
</svg>
