<?xml version="1.0" encoding="UTF-8"?>
<!DOCTYPE svg PUBLIC "-//W3C//DTD SVG 1.0//EN" "http://www.w3.org/TR/2001/REC-SVG-20010904/DTD/svg10.dtd">
<!-- Creator: CorelDRAW 2020 (64 Bit) -->
<svg xmlns="http://www.w3.org/2000/svg" xml:space="preserve" width="45.7054mm" height="14.2594mm" version="1.0" shape-rendering="geometricPrecision" text-rendering="geometricPrecision" image-rendering="optimizeQuality" fill-rule="evenodd" clip-rule="evenodd"
viewBox="0 0 985.44 307.44"
 xmlns:xlink="http://www.w3.org/1999/xlink"
 xmlns:xodm="http://www.corel.com/coreldraw/odm/2003">
 <g id="Cabeçalho">
  <metadata id="CorelCorpID_0Corel-Layer"/>
  <path fill="#4D4D4D" fill-rule="nonzero" d="M-0 123.02c0,-33.97 13.77,-64.72 36.03,-86.98 22.26,-22.26 53.02,-36.03 86.98,-36.03 33.97,0 64.72,13.77 86.98,36.03 22.26,22.26 36.03,53.02 36.03,86.98l-30.43 0c0,-25.57 -10.36,-48.72 -27.11,-65.48 -16.75,-16.75 -39.9,-27.11 -65.48,-27.11 -25.57,0 -48.72,10.36 -65.48,27.11 -16.75,16.75 -27.11,39.9 -27.11,65.48l-30.43 0zm645.79 -0.08c0.18,-34 14.06,-64.73 36.39,-86.94 22.36,-22.25 53.16,-35.99 87.11,-35.99l0.57 0 0 30.43 -0.57 0c-25.67,0 -48.9,10.34 -65.72,27.08 -16.86,16.77 -27.34,39.95 -27.47,65.55l-30.31 -0.12zm-76.35 0.08c0,33.97 -13.77,64.72 -36.03,86.98 -22.26,22.26 -53.02,36.03 -86.98,36.03 -33.97,0 -64.72,-13.77 -86.98,-36.03 -22.26,-22.26 -36.03,-53.02 -36.03,-86.98 0,-33.97 13.77,-64.72 36.03,-86.98 22.26,-22.26 53.02,-36.03 86.98,-36.03 33.97,0 64.72,13.77 86.98,36.03 22.26,22.26 36.03,53.02 36.03,86.98zm-57.54 65.48c16.75,-16.75 27.11,-39.9 27.11,-65.48 0,-25.57 -10.36,-48.72 -27.11,-65.48 -16.75,-16.75 -39.9,-27.11 -65.48,-27.11 -25.57,0 -48.72,10.36 -65.48,27.11 -16.75,16.75 -27.11,39.9 -27.11,65.48 0,25.57 10.36,48.72 27.11,65.48 16.75,16.75 39.9,27.11 65.48,27.11 25.57,0 48.72,-10.36 65.48,-27.11zm-511.9 42.33l0 -107.8 30.43 0 0 107.8 -30.43 0zm246.03 -107.8l0 107.8 -30.43 0 0 -107.8 30.43 0zm323.35 0l-0.01 107.8 -30.31 0 0.01 -107.8 30.31 0zm-539.02 -107.81l0 107.8 -30.31 0 -0 -107.8 30.31 0zm645.73 0l0 215.61 -30.31 0 -0 -215.61 30.31 0zm147.64 -15.21l161.7 0 0 30.43 -161.7 0 0 -30.43zm38.69 230.82l0 -215.61 30.43 0 0 215.61 -30.43 0zm-569.7 -30.24c8.35,0 15.12,6.77 15.12,15.12 0,8.35 -6.77,15.12 -15.12,15.12 -8.35,0 -15.12,-6.77 -15.12,-15.12 0,-8.35 6.77,-15.12 15.12,-15.12z"/>
  <g id="_2020977163584">
   <path fill="#4D4D4D" fill-rule="nonzero" d="M985.17 281.41c0,7.19 -2.91,13.7 -7.63,18.41 -4.71,4.71 -11.22,7.63 -18.41,7.63 -7.19,0 -13.7,-2.91 -18.41,-7.63 -4.71,-4.71 -7.63,-11.22 -7.63,-18.41 0,-7.19 2.91,-13.7 7.63,-18.41 4.71,-4.71 11.22,-7.63 18.41,-7.63 7.19,0 13.7,2.91 18.41,7.63 4.71,4.71 7.63,11.22 7.63,18.41zm-12.18 13.86c3.54,-3.54 5.74,-8.45 5.74,-13.86 0,-5.41 -2.19,-10.31 -5.74,-13.85 -3.54,-3.54 -8.44,-5.74 -13.85,-5.74 -5.41,0 -10.31,2.19 -13.86,5.74 -3.54,3.54 -5.74,8.44 -5.74,13.85 0,5.41 2.19,10.31 5.74,13.86 3.54,3.54 8.45,5.74 13.86,5.74 5.41,0 10.31,-2.19 13.85,-5.74z"/>
   <path fill="#4D4D4D" fill-rule="nonzero" d="M728.72 284.63c-4.04,0 -7.69,-1.64 -10.34,-4.29 -2.65,-2.65 -4.28,-6.3 -4.28,-10.34 0,-4.04 1.64,-7.69 4.28,-10.34 2.65,-2.65 6.3,-4.28 10.34,-4.28l0 6.44c-2.26,0 -4.31,0.92 -5.79,2.4 -1.48,1.48 -2.4,3.53 -2.4,5.79 0,2.26 0.92,4.31 2.4,5.79 1.48,1.48 3.53,2.4 5.79,2.4l0 6.44zm11.41 -6.44c4.04,0 7.69,1.64 10.34,4.28 2.65,2.65 4.28,6.3 4.28,10.34 0,4.04 -1.64,7.69 -4.28,10.34 -2.65,2.65 -6.3,4.28 -10.34,4.28l0 -6.44c2.26,0 4.31,-0.92 5.79,-2.4 1.48,-1.48 2.4,-3.53 2.4,-5.79 0,-2.26 -0.92,-4.31 -2.4,-5.79 -1.48,-1.48 -3.53,-2.4 -5.79,-2.4l0 -6.44zm-11.41 -22.81l22.81 0 0 6.44 -22.81 0 0 -6.44zm11.41 52.07l-22.81 0 0 -6.44 22.81 0 0 6.44zm-11.41 -29.25l11.41 0 0 6.44 -11.41 0 0 -6.44z"/>
   <path fill="#4D4D4D" fill-rule="nonzero" d="M764.77 255.39l34.22 0 0 6.41 -34.22 0 0 -6.41zm8.19 52.05l0 -48.85 6.44 0 0 48.85 -6.44 0z"/>
   <path fill="#4D4D4D" fill-rule="nonzero" d="M847.83 287.11c0,5.61 -2.27,10.7 -5.96,14.37 -3.68,3.68 -8.76,5.96 -14.37,5.96 -5.61,0 -10.7,-2.28 -14.37,-5.96 -3.68,-3.68 -5.96,-8.76 -5.96,-14.37l6.44 0c0,3.84 1.55,7.31 4.07,9.82 2.51,2.51 5.99,4.07 9.82,4.07 3.84,0 7.31,-1.55 9.82,-4.07 2.51,-2.51 4.07,-5.99 4.07,-9.82l6.44 0zm-40.66 0l0 -31.72 6.44 0 0 31.72 -6.44 0zm34.23 0l0 -31.72 6.41 0 -0 31.72 -6.41 0z"/>
   <path fill="#4D4D4D" fill-rule="nonzero" d="M875.64 255.37c7.19,0 13.7,2.91 18.41,7.63 4.71,4.71 7.63,11.22 7.63,18.41 0,7.19 -2.91,13.7 -7.63,18.41 -4.71,4.71 -11.22,7.63 -18.41,7.63l0 -6.44c5.41,0 10.31,-2.19 13.85,-5.74 3.54,-3.54 5.74,-8.45 5.74,-13.86 0,-5.41 -2.19,-10.31 -5.74,-13.85 -3.54,-3.54 -8.44,-5.74 -13.85,-5.74l0 -6.44zm0 6.44l-8.19 0 0 39.2 8.19 0 0 6.41 -14.63 0 0 -52.05 14.63 0 0 6.44z"/>
   <polygon fill="#4D4D4D" fill-rule="nonzero" points="913.95,307.44 913.95,255.39 920.38,255.39 920.38,307.44 "/>
  </g>
 </g>
</svg>
