<?xml version="1.0" encoding="UTF-8"?>
<!DOCTYPE svg PUBLIC "-//W3C//DTD SVG 1.0//EN" "http://www.w3.org/TR/2001/REC-SVG-20010904/DTD/svg10.dtd">
<!-- Creator: CorelDRAW 2020 (64 Bit) -->
<svg xmlns="http://www.w3.org/2000/svg" xml:space="preserve" width="17.4916mm" height="25.1247mm" version="1.0" shape-rendering="geometricPrecision" text-rendering="geometricPrecision" image-rendering="optimizeQuality" fill-rule="evenodd" clip-rule="evenodd"
viewBox="0 0 113.91 163.62"
 xmlns:xlink="http://www.w3.org/1999/xlink"
 xmlns:xodm="http://www.corel.com/coreldraw/odm/2003">
 <g id="Corpo_x0020_2">
  <metadata id="CorelCorpID_0Corel-Layer"/>
  <path fill="#DE9666" d="M60.98 97.45c-4.26,0.1 -7.68,3.58 -7.68,7.87 0,3.55 2.36,6.56 5.59,7.54l0 50.77c-1.05,-3.12 -2.9,-9.34 -2.9,-9.34 0,0 -4.21,-16.56 -10.52,-19.85l0 0 -24.3 -8.7c0.34,-2.67 0.75,-5.31 1.23,-7.86 2.96,-15.84 7.85,-26.89 14.95,-36.31 7.09,-9.43 10.8,-18.73 13.09,-24.52 2.29,-5.78 4.41,-15.68 7.4,-28.02 3,-12.34 3.13,-29.01 3.13,-29.01 0,0 0.14,16.66 3.13,29.01 3,12.34 5.11,22.24 7.4,28.02 2.29,5.78 6,15.09 13.09,24.52 7.09,9.43 11.98,20.47 14.95,36.31 0.48,2.56 0.89,5.19 1.23,7.86l-24.3 8.7 0 0c-6.31,3.29 -10.52,19.85 -10.52,19.85 0,0 -1.85,6.22 -2.9,9.34l0 -50.77c3.24,-0.98 5.59,-3.98 5.59,-7.54 0,-4.28 -3.42,-7.77 -7.68,-7.87z"/>
  <circle fill="#669999" cx="100.96" cy="44.1" r="12.96"/>
  <circle fill="#A9DEDE" cx="6.2" cy="65.76" r="6.19"/>
 </g>
</svg>
