<?xml version="1.0" encoding="UTF-8"?>
<!DOCTYPE svg PUBLIC "-//W3C//DTD SVG 1.0//EN" "http://www.w3.org/TR/2001/REC-SVG-20010904/DTD/svg10.dtd">
<!-- Creator: CorelDRAW 2020 (64 Bit) -->
<svg xmlns="http://www.w3.org/2000/svg" xml:space="preserve" width="52.2099mm" height="42.8446mm" version="1.0" shape-rendering="geometricPrecision" text-rendering="geometricPrecision" image-rendering="optimizeQuality" fill-rule="evenodd" clip-rule="evenodd"
viewBox="0 0 1117.39 916.96"
 xmlns:xlink="http://www.w3.org/1999/xlink"
 xmlns:xodm="http://www.corel.com/coreldraw/odm/2003">
 <g id="Corpo_x0020_2">
  <metadata id="CorelCorpID_0Corel-Layer"/>
  <circle fill="#A9DEDE" cx="1068.27" cy="867.83" r="49.12"/>
  <circle fill="#669999" cx="111.82" cy="102.72" r="102.72"/>
  <circle fill="#DE9666" transform="matrix(0.15322 -0.0464775 0.0464775 0.15322 561.139 520.477)" r="2371.48"/>
  <path fill="#D4834C" d="M900.59 342.04l19.16 44.01c24.52,10.89 39.66,25.13 42.93,42.48 12.85,68.17 -162.33,158.42 -391.28,201.58 -228.95,43.17 -424.96,22.9 -437.81,-45.27 -4.16,-22.08 11.4,-46.48 42.13,-70.84l1.83 -41.5c-116.8,53.16 -186.28,113.4 -176.68,164.35 17.07,90.54 277.43,117.46 581.52,60.12 304.1,-57.33 536.77,-177.21 519.7,-267.75 -9.02,-47.86 -86.02,-77.94 -201.52,-87.2z"/>
 </g>
</svg>
